<?xml version="1.0" encoding="UTF-8" standalone="no"?>
<!-- Created with Inkscape (http://www.inkscape.org/) -->

<svg
   xmlns:dc="http://purl.org/dc/elements/1.1/"
   xmlns:cc="http://creativecommons.org/ns#"
   xmlns:rdf="http://www.w3.org/1999/02/22-rdf-syntax-ns#"
   xmlns:svg="http://www.w3.org/2000/svg"
   xmlns="http://www.w3.org/2000/svg"
   xmlns:sodipodi="http://sodipodi.sourceforge.net/DTD/sodipodi-0.dtd"
   xmlns:inkscape="http://www.inkscape.org/namespaces/inkscape"
   width="136.98134mm"
   height="84.723846mm"
   viewBox="0 0 485.36695 300.20261"
   id="svg2"
   version="1.1"
   inkscape:version="0.91 r13725"
   sodipodi:docname="Logo SARA Form Creator.svg"
   inkscape:export-filename="/var/www/html/ejemplo/ace-builds-master/index/favicon.png"
   inkscape:export-xdpi="100"
   inkscape:export-ydpi="100">
  <defs
     id="defs4" />
  <sodipodi:namedview
     id="base"
     pagecolor="#ffffff"
     bordercolor="#666666"
     borderopacity="1.0"
     inkscape:pageopacity="0.0"
     inkscape:pageshadow="2"
     inkscape:zoom="1"
     inkscape:cx="28.319156"
     inkscape:cy="288.30459"
     inkscape:document-units="px"
     inkscape:current-layer="layer1"
     showgrid="false"
     fit-margin-top="0"
     fit-margin-left="0"
     fit-margin-right="0"
     fit-margin-bottom="0"
     inkscape:window-width="1920"
     inkscape:window-height="966"
     inkscape:window-x="0"
     inkscape:window-y="36"
     inkscape:window-maximized="1" />
  <metadata
     id="metadata7">
    <rdf:RDF>
      <cc:Work
         rdf:about="">
        <dc:format>image/svg+xml</dc:format>
        <dc:type
           rdf:resource="http://purl.org/dc/dcmitype/StillImage" />
        <dc:title></dc:title>
      </cc:Work>
    </rdf:RDF>
  </metadata>
  <g
     inkscape:label="Capa 1"
     inkscape:groupmode="layer"
     id="layer1"
     transform="translate(-162.29291,-151.08896)">
    <path
       style="fill:#8080ff;fill-rule:evenodd;stroke:#000000;stroke-width:1px;stroke-linecap:butt;stroke-linejoin:miter;stroke-opacity:1"
       d="m 295.28268,278.39805 -106.42857,0.71429 -13.57143,26.42857 10.71428,19.28571 58.57143,0 0,6.42858 -58.57143,-0.71429 -22.85714,41.42857 96.42857,0 12.14286,22.14286 22.85714,-41.42857 -22.14286,-46.51523 -47.81381,0.0867 -0.0433,-5.71429 60,0 z"
       id="path4143"
       inkscape:connector-curvature="0"
       sodipodi:nodetypes="cccccccccccccccc" />
    <path
       style="fill:#8080ff;fill-rule:evenodd;stroke:#000000;stroke-width:1px;stroke-linecap:butt;stroke-linejoin:miter;stroke-opacity:1"
       d="m 319.59302,280.62757 11.42858,23.57143 72.85718,0.16588 0.2525,4.95667 -65.25254,-0.12255 -0.71429,29.28571 6.42857,10 -12.14285,22.85714 56.42861,0 -0.7143,-39.28571 10.7143,0 0.043,39.49492 16.3852,-0.20921 11.4286,23.57143 25,-44.28571 -12.1429,-20.71429 -10.7576,0 0.043,-4.28571 14.2857,-0.71429 9.2857,-20 -15.7136,-24.28571 z"
       id="path4151"
       inkscape:connector-curvature="0"
       sodipodi:nodetypes="cccccccccccccccccccccc" />
    <path
       inkscape:connector-curvature="0"
       style="fill:#d5d5ff;fill-rule:evenodd;stroke:#000000;stroke-width:1px;stroke-linecap:butt;stroke-linejoin:miter;stroke-opacity:1"
       d="m 456.12795,336.73843 -35.7129,72.14258 10,20 48.5703,-0.71485 0,-40 9.2871,0 -0.7148,39.28516 25.7148,0 14.2852,22.85743 24.2852,-43.57032 -38.5704,-69.28711 z m 33.5723,22.14258 12.8574,20.71484 -33.5723,0.71289 11.22,-21.4705 z"
       id="path4145-6"
       sodipodi:nodetypes="ccccccccccccccccc" />
    <path
       inkscape:connector-curvature="0"
       style="fill:#d5d5ff;fill-rule:evenodd;stroke:#000000;stroke-width:1px;stroke-linecap:butt;stroke-linejoin:miter;stroke-opacity:1"
       d="m 282.88684,335.70797 -35.71289,72.14258 10,20 48.57032,-0.71485 0,-40 9.28711,0 -0.71485,39.28516 25.71485,0 14.28515,22.85742 24.28516,-43.57031 -38.57031,-69.28711 z m 33.57227,22.14258 12.85742,20.71484 -33.57226,0.71289 10.96738,-21.21797 z"
       id="path4145"
       sodipodi:nodetypes="ccccccccccccccccc" />
    <path
       style="fill:#d5d5ff"
       d="m 518.08849,174.94256 a 48.487324,44.95179 0 0 0 -48.48633,44.95313 48.487324,44.95179 0 0 0 48.48633,44.95117 48.487324,44.95179 0 0 0 48.48828,-44.95117 48.487324,44.95179 0 0 0 -48.48828,-44.95313 z m 0,13.13281 a 38.890873,31.819805 0 0 1 38.89062,31.82032 38.890873,31.819805 0 0 1 -38.89062,31.82031 38.890873,31.819805 0 0 1 -38.89062,-31.82031 38.890873,31.819805 0 0 1 38.89062,-31.82032 z"
       id="path4213"
       inkscape:connector-curvature="0" />
    <path
       inkscape:connector-curvature="0"
       style="fill:#d5d5ff"
       d="m 518.0886,192.62079 a 29.294418,28.284406 0 0 0 -29.29382,28.28524 29.294418,28.284406 0 0 0 29.29382,28.28402 29.294418,28.284406 0 0 0 29.29499,-28.28402 29.294418,28.284406 0 0 0 -29.29499,-28.28524 z m 0,8.26338 a 23.496564,20.021545 0 0 1 23.49641,20.02186 23.496564,20.021545 0 0 1 -23.49641,20.02187 23.496564,20.021545 0 0 1 -23.49641,-20.02187 23.496564,20.021545 0 0 1 23.49641,-20.02186 z"
       id="path4213-1" />
    <path
       style="fill:#333333;fill-rule:evenodd;stroke:#000000;stroke-width:0.78515691px;stroke-linecap:butt;stroke-linejoin:miter;stroke-opacity:1"
       d="m 501.93853,220.35499 -39.27934,87.63321 -12.40401,37.73097 25.84167,-32.86246 43.48135,-89.03459 c -6.25699,-2.66413 -13.24032,-8.23356 -17.63967,-3.46713 z"
       id="path4233"
       inkscape:connector-curvature="0"
       sodipodi:nodetypes="cccccc" />
    <g
       id="g4328"
       transform="matrix(0.83804434,0.54560213,-0.54560213,0.83804434,196.82867,-250.42341)">
      <path
         sodipodi:nodetypes="ccccc"
         inkscape:connector-curvature="0"
         id="path4235"
         d="m 562.78493,113.38484 -20.71429,27.14286 12.92857,1 19.75,-26.82143 z"
         style="fill:#666666;fill-rule:evenodd;stroke:#000000;stroke-width:1px;stroke-linecap:butt;stroke-linejoin:miter;stroke-opacity:1" />
      <path
         sodipodi:nodetypes="cccccc"
         inkscape:connector-curvature="0"
         id="path4237"
         d="m 574.49921,115.95627 -5.28571,37.78571 -26.07143,54.28572 -15,-10 26.21428,-56.82143 z"
         style="fill:#808080;fill-rule:evenodd;stroke:#000000;stroke-width:1px;stroke-linecap:butt;stroke-linejoin:miter;stroke-opacity:1" />
      <path
         inkscape:connector-curvature="0"
         id="path4239"
         d="m 542.07064,140.17055 12.14286,0.71429 -26.42857,57.85714 -11.42858,-2.85714 z"
         style="fill:#4d4d4d;fill-rule:evenodd;stroke:#000000;stroke-width:1px;stroke-linecap:butt;stroke-linejoin:miter;stroke-opacity:1" />
      <path
         sodipodi:nodetypes="ccccc"
         inkscape:connector-curvature="0"
         id="path4241"
         d="m 516.07064,196.45627 16.71429,10.28571 9.28571,0.92857 -14.64286,-9.64285 z"
         style="fill:#cccccc;fill-rule:evenodd;stroke:#000000;stroke-width:1px;stroke-linecap:butt;stroke-linejoin:miter;stroke-opacity:1" />
      <path
         sodipodi:nodetypes="ccccccc"
         inkscape:connector-curvature="0"
         id="path4243"
         d="m 546.35635,144.45627 -6.78571,3.57143 -5.75,13.78571 0.75,8.71429 6.03571,-5.64286 6.82143,-14.71429 z"
         style="fill:#d5d5ff;fill-rule:evenodd;stroke:#000000;stroke-width:1px;stroke-linecap:butt;stroke-linejoin:miter;stroke-opacity:1" />
      <path
         sodipodi:nodetypes="ccccc"
         inkscape:connector-curvature="0"
         id="path4245"
         d="m 557.07064,179.45627 c 47.4559,10.59196 71.70911,53.19352 117.14286,71.78571 9.01449,-5.80265 12.08808,-13.72704 11.78571,-22.85714 -37.74105,-32.78166 -85.24068,-43.41996 -118.07143,-72.75 z"
         style="fill:#aa4400;fill-rule:evenodd;stroke:#000000;stroke-width:1px;stroke-linecap:butt;stroke-linejoin:miter;stroke-opacity:1" />
    </g>
    <path
       style="fill:#b3b3b3;fill-rule:evenodd;stroke:#000000;stroke-width:0.78515691px;stroke-linecap:butt;stroke-linejoin:miter;stroke-opacity:1"
       d="m 456.53182,326.34943 -5.98184,19.25374 13.88734,-18.28858 c -3.34168,2.50432 -6.52972,4.39412 -7.9055,-0.96516 z"
       id="path4247"
       inkscape:connector-curvature="0"
       sodipodi:nodetypes="cccc" />
    <text
       xml:space="preserve"
       style="font-style:normal;font-weight:normal;font-size:55.14909363px;line-height:125%;font-family:sans-serif;letter-spacing:0px;word-spacing:0px;fill:#000000;fill-opacity:1;stroke:none;stroke-width:1px;stroke-linecap:butt;stroke-linejoin:miter;stroke-opacity:1"
       x="160.54579"
       y="245.90916"
       id="text4249"
       sodipodi:linespacing="125%"
       transform="scale(1.146746,0.87203273)"><tspan
         sodipodi:role="line"
         x="160.54579"
         y="245.90916"
         id="tspan4253"
         style="text-align:start;text-anchor:start" /></text>
    <g
       id="g4265"
       transform="matrix(1.2175541,0,0,1,-39.861459,0)">
      <text
         sodipodi:linespacing="125%"
         id="text4255"
         y="270.59912"
         x="179.85635"
         style="font-style:normal;font-weight:normal;font-size:12.5px;line-height:125%;font-family:sans-serif;letter-spacing:0px;word-spacing:0px;fill:#000000;fill-opacity:1;stroke:none;stroke-width:1px;stroke-linecap:butt;stroke-linejoin:miter;stroke-opacity:1"
         xml:space="preserve"><tspan
           style="font-size:60px"
           y="270.59912"
           x="179.85635"
           id="tspan4257"
           sodipodi:role="line">Creator</tspan></text>
      <text
         sodipodi:linespacing="125%"
         id="text4261"
         y="219.59912"
         x="177.33682"
         style="font-style:normal;font-weight:normal;font-size:12.5px;line-height:125%;font-family:sans-serif;letter-spacing:0px;word-spacing:0px;fill:#000000;fill-opacity:1;stroke:none;stroke-width:1px;stroke-linecap:butt;stroke-linejoin:miter;stroke-opacity:1"
         xml:space="preserve"><tspan
           style="font-size:60px"
           y="219.59912"
           x="177.33682"
           id="tspan4263"
           sodipodi:role="line">Form</tspan></text>
    </g>
  </g>
</svg>
