<?xml version="1.0" encoding="UTF-8" standalone="no"?>
<!-- Created with Inkscape (http://www.inkscape.org/) -->

<svg
   xmlns:dc="http://purl.org/dc/elements/1.1/"
   xmlns:cc="http://creativecommons.org/ns#"
   xmlns:rdf="http://www.w3.org/1999/02/22-rdf-syntax-ns#"
   xmlns:svg="http://www.w3.org/2000/svg"
   xmlns="http://www.w3.org/2000/svg"
   xmlns:sodipodi="http://sodipodi.sourceforge.net/DTD/sodipodi-0.dtd"
   xmlns:inkscape="http://www.inkscape.org/namespaces/inkscape"
   width="360"
   height="500"
   id="svg2"
   version="1.1"
   inkscape:version="0.48.4 r9939"
   sodipodi:docname="Documento nuevo 1">
  <defs
     id="defs4" />
  <sodipodi:namedview
     id="base"
     pagecolor="#ffffff"
     bordercolor="#666666"
     borderopacity="1.0"
     inkscape:pageopacity="0.0"
     inkscape:pageshadow="2"
     inkscape:zoom="0.98994949"
     inkscape:cx="24.110591"
     inkscape:cy="207.18081"
     inkscape:document-units="px"
     inkscape:current-layer="layer1"
     showgrid="false"
     fit-margin-top="-0.5"
     inkscape:snap-from-guide="true"
     inkscape:window-width="1366"
     inkscape:window-height="667"
     inkscape:window-x="0"
     inkscape:window-y="28"
     inkscape:window-maximized="1" />
  <metadata
     id="metadata7">
    <rdf:RDF>
      <cc:Work
         rdf:about="">
        <dc:format>image/svg+xml</dc:format>
        <dc:type
           rdf:resource="http://purl.org/dc/dcmitype/StillImage" />
        <dc:title></dc:title>
      </cc:Work>
    </rdf:RDF>
  </metadata>
  <g
     inkscape:groupmode="layer"
     id="layer2"
     inkscape:label="Capa"
     style="display:inline">
    <path
       style="fill:#80b3ff;fill-opacity:0.19607843000000000;stroke:#000000;stroke-width:0;stroke-miterlimit:4;stroke-opacity:1;stroke-dasharray:none;display:inline"
       d="m 117.14078,312.09177 c -2.69889,7.42468 -6.29053,5.49418 -17.601374,7.32416 -7.661569,1.23958 -19.773534,3.4066 -26.366085,1.2569 -14.940197,-4.87161 -23.135829,-19.5932 -18.30548,-32.88156 4.830311,-13.28836 20.857479,-20.11148 35.797678,-15.2398 5.567604,1.81545 17.546171,17.48694 20.915401,21.45429 5.6718,6.6787 8.59019,9.74977 5.55992,18.08611 z"
       id="path3349-21-7"
       inkscape:connector-curvature="0"
       sodipodi:nodetypes="sssssss"
       inkscape:export-xdpi="90"
       inkscape:export-ydpi="90" />
    <path
       style="fill:#aaccff;fill-opacity:0.19607843000000000;stroke:#000000;stroke-width:0;stroke-miterlimit:4;stroke-opacity:1;stroke-dasharray:none;display:inline"
       d="m 128.58519,299.63593 c -7.84988,2.03816 -8.12688,-1.95076 -15.80935,-10.0251 -5.20384,-5.46926 -13.609053,-13.99778 -15.317537,-20.52869 -3.871849,-14.80056 4.378647,-29.75587 18.428027,-33.40368 14.04939,-3.64776 28.57743,5.3933 32.44928,20.19383 1.44288,5.51557 -5.58307,24.05754 -7.17992,29.02292 -2.68818,8.35873 -3.75675,12.45233 -12.5705,14.74072 z"
       id="path3349-9-6-4"
       inkscape:connector-curvature="0"
       sodipodi:nodetypes="sssssss"
       inkscape:export-xdpi="90"
       inkscape:export-ydpi="90" />
    <path
       style="fill:#d5e5ff;fill-opacity:0.19607843000000000;stroke:#000000;stroke-width:0;stroke-miterlimit:4;stroke-opacity:1;stroke-dasharray:none;display:inline"
       d="m 145.90004,304.10224 c -5.97431,-5.18813 -2.68071,-7.6636 0.16184,-18.42528 1.92537,-7.28957 4.77169,-18.89124 9.49028,-23.95769 10.69335,-11.48169 28.03004,-13.26209 38.72263,-3.97658 10.69255,9.2855 10.69191,26.12064 -6.9e-4,37.60235 -3.98502,4.27878 -23.75934,9.07271 -28.90186,10.58632 -8.65694,2.548 -12.76347,3.99606 -19.47138,-1.82912 z"
       id="path3349-9-4-9-2"
       inkscape:connector-curvature="0"
       sodipodi:nodetypes="sssssss"
       inkscape:export-xdpi="90"
       inkscape:export-ydpi="90" />
    <path
       style="fill:#0066ff;fill-opacity:0.19607843000000000;stroke:#000000;stroke-width:0;stroke-miterlimit:4;stroke-opacity:1;stroke-dasharray:none;display:inline"
       d="m 149.44386,318.19595 c 1.88191,-7.6451 5.66964,-6.09376 16.73866,-9.06033 7.49773,-2.00942 19.32819,-5.39205 26.12921,-3.92821 15.41264,3.31733 25.17661,17.09869 21.80842,30.78154 -3.36816,13.68282 -18.59303,22.08572 -34.00566,18.76839 -5.7437,-1.23624 -19.3794,-15.57601 -23.16684,-19.17201 -6.37584,-6.05352 -9.61679,-8.80558 -7.50382,-17.38938 z"
       id="path3349-4-90-8"
       inkscape:connector-curvature="0"
       sodipodi:nodetypes="sssssss"
       inkscape:export-filename="/home/violetas/Downloads/Vive Digital/ViveDigital Multimedia/componentes/path3349-9-4.png"
       inkscape:export-xdpi="90"
       inkscape:export-ydpi="90" />
    <path
       style="fill:#2a7fff;fill-opacity:0.19607843000000000;stroke:#000000;stroke-width:0;stroke-miterlimit:4;stroke-opacity:1;stroke-dasharray:none;display:inline"
       d="m 137.75221,331.18953 c 7.61228,-2.78538 8.30147,1.15003 16.79437,8.4258 5.75276,4.92834 15.01299,12.58521 17.39221,18.9069 5.39184,14.32637 -1.28163,29.9814 -14.9057,34.96651 -13.62406,4.98516 -29.0395,-2.58741 -34.43134,-16.91376 -2.00932,-5.33887 3.07224,-24.43791 4.14935,-29.52483 1.81324,-8.56343 2.4542,-12.73326 11.00111,-15.86062 z"
       id="path3349-9-5-65-7"
       inkscape:connector-curvature="0"
       sodipodi:nodetypes="sssssss"
       inkscape:export-filename="/home/violetas/Downloads/Vive Digital/ViveDigital Multimedia/componentes/path3349-9-4.png"
       inkscape:export-xdpi="90"
       inkscape:export-ydpi="90" />
    <path
       style="fill:#5599ff;fill-opacity:0.19607843000000000;stroke:#000000;stroke-width:0;stroke-miterlimit:4;stroke-opacity:1;stroke-dasharray:none;display:inline"
       d="m 121.26993,325.8851 c 5.98791,5.17353 2.70054,7.65683 -0.11427,18.42489 -1.90669,7.29387 -4.72325,18.90187 -9.42897,23.97948 -10.66421,11.50692 -27.996982,13.32895 -38.713863,4.06966 -10.716879,-9.25937 -10.759536,-26.09376 -0.09535,-37.60071 3.974149,-4.28817 23.736864,-9.12952 28.875703,-10.65542 8.65074,-2.56877 12.75369,-4.02666 19.47682,1.7821 z"
       id="path3349-9-4-3-40-0"
       inkscape:connector-curvature="0"
       sodipodi:nodetypes="sssssss"
       inkscape:transform-center-x="-0.43372196"
       inkscape:transform-center-y="9.8158729"
       inkscape:export-filename="/home/violetas/Downloads/Vive Digital/ViveDigital Multimedia/componentes/path3349-9-4.png"
       inkscape:export-xdpi="90"
       inkscape:export-ydpi="90" />
    <path
       style="fill:#afdde9;fill-opacity:0.19607843000000000;stroke:#000000;stroke-width:0;stroke-miterlimit:4;stroke-opacity:1;stroke-dasharray:none;display:inline"
       d="m 216.12543,215.10621 c -3.22475,9.01417 -7.5162,6.67039 -21.03085,8.89214 -9.15437,1.50495 -23.62624,4.13589 -31.5033,1.52598 -17.85116,-5.91454 -27.64365,-23.78776 -21.87215,-39.92094 5.77146,-16.13316 24.92139,-24.417 42.77256,-18.50237 6.65239,2.2041 20.96488,21.23059 24.99058,26.04728 6.7769,8.10849 10.26392,11.83702 6.64322,21.95804 z"
       id="path3349-21-7-5"
       inkscape:connector-curvature="0"
       sodipodi:nodetypes="sssssss"
       inkscape:export-xdpi="90"
       inkscape:export-ydpi="90" />
    <path
       style="fill:#87cdde;fill-opacity:0.19607843000000000;stroke:#000000;stroke-width:0;stroke-miterlimit:4;stroke-opacity:1;stroke-dasharray:none;display:inline"
       d="m 229.79968,199.98379 c -9.37937,2.4745 -9.71033,-2.36838 -18.88967,-12.1713 -6.21776,-6.64013 -16.26066,-16.99446 -18.30203,-24.92353 -4.62624,-17.9691 5.23179,-36.12607 22.01858,-40.55481 16.78679,-4.42868 34.1455,6.5479 38.77174,24.51696 1.72401,6.69636 -6.67089,29.20785 -8.57887,35.23623 -3.21195,10.14819 -4.48872,15.11815 -15.01975,17.89645 z"
       id="path3349-9-6-4-6"
       inkscape:connector-curvature="0"
       sodipodi:nodetypes="sssssss"
       inkscape:export-xdpi="90"
       inkscape:export-ydpi="90" />
    <path
       style="fill:#5fbcd3;fill-opacity:0.19607843000000000;stroke:#000000;stroke-width:0;stroke-miterlimit:4;stroke-opacity:1;stroke-dasharray:none;display:inline"
       d="m 250.48817,205.40626 c -7.13834,-6.29882 -3.20302,-9.30424 0.19338,-22.36981 2.30052,-8.85014 5.70142,-22.93553 11.33938,-29.08662 12.77686,-13.93972 33.49146,-16.10127 46.26741,-4.8279 12.7759,11.27337 12.77513,31.71262 -8.3e-4,45.65236 -4.76147,5.1948 -28.38865,11.01502 -34.53314,12.85267 -10.34367,3.09349 -15.25032,4.85155 -23.26521,-2.2207 z"
       id="path3349-9-4-9-2-0"
       inkscape:connector-curvature="0"
       sodipodi:nodetypes="sssssss"
       inkscape:export-xdpi="90"
       inkscape:export-ydpi="90" />
    <path
       style="fill:#5fbcd3;fill-opacity:0.19607843000000000;stroke:#000000;stroke-width:0;stroke-miterlimit:4;stroke-opacity:1;stroke-dasharray:none;display:inline"
       d="m 254.72248,222.51719 c 2.24858,-9.28178 6.77432,-7.39833 20.00004,-10.99998 8.95861,-2.43961 23.09413,-6.5464 31.22026,-4.76918 18.41567,4.02752 30.08206,20.75922 26.05761,37.37133 -4.02442,16.61208 -22.21572,26.8139 -40.63138,22.78638 -6.8628,-1.5009 -23.1553,-18.91056 -27.68069,-23.2764 -7.61812,-7.34948 -11.49054,-10.69071 -8.96587,-21.11215 z"
       id="path3349-4-90-8-3"
       inkscape:connector-curvature="0"
       sodipodi:nodetypes="sssssss"
       inkscape:export-filename="/home/violetas/Downloads/Vive Digital/ViveDigital Multimedia/componentes/path3349-9-4.png"
       inkscape:export-xdpi="90"
       inkscape:export-ydpi="90" />
    <path
       style="fill:#37abc8;fill-opacity:0.19607843000000000;stroke:#000000;stroke-width:0;stroke-miterlimit:4;stroke-opacity:1;stroke-dasharray:none;display:inline"
       d="m 240.75282,238.29247 c 9.09546,-3.38168 9.91893,1.39624 20.06661,10.22962 6.87363,5.98341 17.93813,15.27948 20.78092,22.95454 6.4424,17.39339 -1.53134,36.3999 -17.80994,42.45223 -16.2786,6.0524 -34.6976,-3.14133 -41.14,-20.5347 -2.40081,-6.48183 3.67085,-29.66965 4.95782,-35.84558 2.16654,-10.39672 2.93238,-15.45923 13.14459,-19.25611 z"
       id="path3349-9-5-65-7-5"
       inkscape:connector-curvature="0"
       sodipodi:nodetypes="sssssss"
       inkscape:export-filename="/home/violetas/Downloads/Vive Digital/ViveDigital Multimedia/componentes/path3349-9-4.png"
       inkscape:export-xdpi="90"
       inkscape:export-ydpi="90" />
    <path
       style="fill:#d7eef4;fill-opacity:0.19607843000000000;stroke:#000000;stroke-width:0;stroke-miterlimit:4;stroke-opacity:1;stroke-dasharray:none;display:inline"
       d="m 221.0591,231.85245 c 7.1546,6.2811 3.22672,9.29603 -0.13653,22.36934 -2.27819,8.85537 -5.64354,22.94844 -11.26613,29.11307 -12.74203,13.97036 -33.45195,16.18245 -46.25691,4.94091 -12.80498,-11.24164 -12.85595,-31.67998 -0.11387,-45.65038 4.74847,-5.20619 28.36178,-11.08398 34.50188,-12.93655 10.33625,-3.1187 15.23863,-4.8887 23.2717,2.16361 z"
       id="path3349-9-4-3-40-0-8"
       inkscape:connector-curvature="0"
       sodipodi:nodetypes="sssssss"
       inkscape:transform-center-x="-0.51822984"
       inkscape:transform-center-y="11.917281"
       inkscape:export-filename="/home/violetas/Downloads/Vive Digital/ViveDigital Multimedia/componentes/path3349-9-4.png"
       inkscape:export-xdpi="90"
       inkscape:export-ydpi="90" />
  </g>
  <g
     inkscape:label="Capa 1"
     inkscape:groupmode="layer"
     id="layer1"
     transform="translate(0,-552.36215)"
     style="display:inline">
    <path
       style="fill:#00002b;fill-opacity:0.19801983;stroke:#000000;stroke-width:0;stroke-miterlimit:4;stroke-opacity:1;stroke-dasharray:none;display:inline"
       d="m 59.884683,765.20073 c -1.547524,-2.85239 0.07701,-3.3648 2.725833,-7.17739 1.79425,-2.5825 4.56604,-6.72277 7.11309,-8.05082 5.7722,-3.00964 12.69675,-1.31092 15.46643,3.79417 2.769691,5.10509 0.33567,11.68337 -5.43654,14.69301 -2.15107,1.12157 -10.44871,0.26376 -12.64517,0.14499 -3.69757,-0.19998 -5.486154,-0.20129 -7.223691,-3.40392 z"
       id="path3349"
       inkscape:connector-curvature="0"
       sodipodi:nodetypes="sssssss"
       inkscape:export-xdpi="90"
       inkscape:export-ydpi="90" />
    <path
       style="fill:#00002b;fill-opacity:0.19607843;stroke:#000000;stroke-width:0;stroke-miterlimit:4;stroke-opacity:1;stroke-dasharray:none;display:inline"
       d="m 60.512002,772.00634 c 1.598769,-2.85953 2.921764,-1.83152 7.626964,-1.83085 3.18714,4.4e-4 8.23974,-0.0836 10.76304,1.23282 5.71843,2.98362 8.03447,9.55115 5.17306,14.66899 -2.86143,5.11784 -9.81674,6.84798 -15.53517,3.86437 -2.13101,-1.11187 -5.914311,-8.31881 -7.008461,-10.16563 -1.84191,-3.10892 -2.814526,-4.55909 -1.019433,-7.7697 z"
       id="path3349-9"
       inkscape:connector-curvature="0"
       sodipodi:nodetypes="sssssss"
       inkscape:export-xdpi="90"
       inkscape:export-ydpi="90" />
    <path
       style="fill:#00002b;fill-opacity:0.18316836;stroke:#000000;stroke-width:0;stroke-miterlimit:4;stroke-opacity:1;stroke-dasharray:none;display:inline"
       d="m 54.190276,775.82228 c 3.318773,-0.30276 3.153345,1.34747 5.700782,5.16952 1.725545,2.58889 4.533898,6.64558 4.770988,9.43232 0.53726,6.3154 -3.842332,11.87431 -9.782159,12.41616 -5.939802,0.54186 -11.19049,-4.13852 -11.727845,-10.45384 -0.200214,-2.3535 3.933335,-9.46221 4.925066,-11.3851 1.669489,-3.237 2.386763,-4.83905 6.113037,-5.179 z"
       id="path3349-9-4"
       inkscape:connector-curvature="0"
       sodipodi:nodetypes="sssssss"
       inkscape:export-xdpi="90"
       inkscape:export-ydpi="90" />
    <path
       style="fill:#00002b;fill-opacity:0.20297032;stroke:#7fde31;stroke-width:0;stroke-miterlimit:4;stroke-opacity:0;stroke-dasharray:none;display:inline"
       d="m 48.785695,772.93934 c 1.84883,2.67505 0.286774,3.35014 -1.938745,7.40806 -1.507488,2.74868 -3.819999,7.14467 -6.212493,8.72426 -5.421888,3.57973 -12.499613,2.60051 -15.808536,-2.18718 -3.308931,-4.78767 -1.596019,-11.57078 3.825869,-15.15052 2.020535,-1.33402 10.37451,-1.33047 12.574207,-1.43707 3.702976,-0.17947 5.483888,-0.36105 7.559706,2.64243 z"
       id="path3349-4"
       inkscape:connector-curvature="0"
       sodipodi:nodetypes="sssssss"
       inkscape:export-filename="/home/violetas/Downloads/Vive Digital/ViveDigital Multimedia/componentes/path3349-9-4.png"
       inkscape:export-xdpi="90"
       inkscape:export-ydpi="90" />
    <path
       style="fill:#00002b;fill-opacity:0.18811885;stroke:#000000;stroke-width:0;stroke-miterlimit:4;stroke-opacity:1;stroke-dasharray:none;display:inline"
       d="m 48.061038,765.91204 c -1.298084,2.99784 -2.721714,2.10511 -7.408541,2.56316 -3.174666,0.31028 -8.198772,0.88653 -10.847765,-0.17595 -6.003178,-2.40782 -8.986373,-8.70923 -6.663141,-14.07461 2.323233,-5.36539 9.073138,-7.763 15.076308,-5.35519 2.237152,0.89731 6.747675,7.69116 8.027678,9.41995 2.1548,2.91028 3.272924,4.25671 1.815461,7.62264 z"
       id="path3349-9-5"
       inkscape:connector-curvature="0"
       sodipodi:nodetypes="sssssss"
       inkscape:export-filename="/home/violetas/Downloads/Vive Digital/ViveDigital Multimedia/componentes/path3349-9-4.png"
       inkscape:export-xdpi="90"
       inkscape:export-ydpi="90" />
    <path
       style="fill:#00002b;fill-opacity:0.19607843;stroke:#000000;stroke-width:0;stroke-miterlimit:4;stroke-opacity:1;stroke-dasharray:none;display:inline"
       d="m 54.407178,762.57229 c -3.318098,0.31078 -3.156878,-1.33981 -5.714198,-5.15552 -1.732222,-2.58464 -4.551023,-6.63438 -4.795237,-9.42048 -0.553433,-6.3139 3.812062,-11.88324 9.750603,-12.43949 5.938557,-0.55623 11.20136,4.11128 11.75481,10.42519 0.20623,2.35294 -3.909226,9.47144 -4.896071,11.39666 -1.661235,3.24095 -2.374422,4.84472 -6.099923,5.19366 z"
       id="path3349-9-4-3"
       inkscape:connector-curvature="0"
       sodipodi:nodetypes="sssssss"
       inkscape:transform-center-x="2.9596616"
       inkscape:transform-center-y="-1.6582535"
       inkscape:export-filename="/home/violetas/Downloads/Vive Digital/ViveDigital Multimedia/componentes/path3349-9-4.png"
       inkscape:export-xdpi="90"
       inkscape:export-ydpi="90" />
    <text
       xml:space="preserve"
       style="font-size:44.45943832px;font-style:normal;font-weight:normal;line-height:125%;letter-spacing:0px;word-spacing:0px;fill:#00002b;fill-opacity:0.23267326;stroke:none;display:inline;font-family:sans-serif"
       x="65.722809"
       y="836.46124"
       id="text3464"
       sodipodi:linespacing="125%"
       transform="scale(1.0225609,0.97793686)"><tspan
         sodipodi:role="line"
         id="tspan3466"
         x="65.722809"
         y="836.46124"><tspan
           style="font-style:normal;font-variant:normal;font-weight:normal;font-stretch:normal;line-height:0%;fill:#00002b;fill-opacity:0.23267326;font-family:Comfortaa;-inkscape-font-specification:Comfortaa"
           id="tspan3554">Open</tspan><tspan
           style="font-style:normal;font-variant:normal;font-weight:bold;font-stretch:normal;fill:#00002b;fill-opacity:0.23267326;font-family:sans-serif;-inkscape-font-specification:sans-serif Bold"
           id="tspan3672"
           transform="translate(60.714286,271.42857)">KyOS</tspan></tspan></text>
    <text
       xml:space="preserve"
       style="font-size:31.84456825px;font-style:normal;font-weight:normal;line-height:125%;letter-spacing:0px;word-spacing:0px;fill:#2c5aa0;fill-opacity:1;stroke:none;display:inline;font-family:sans-serif"
       x="39.833595"
       y="1150.1471"
       id="text3784"
       sodipodi:linespacing="125%"
       transform="scale(1.0225609,0.97793686)"><tspan
         sodipodi:role="line"
         id="tspan3786"
         x="39.833595"
         y="1150.1471" /></text>
    <text
       xml:space="preserve"
       style="font-size:31.84456825px;font-style:normal;font-weight:normal;line-height:125%;letter-spacing:0px;word-spacing:0px;fill:#2c5aa0;fill-opacity:1;stroke:none;display:inline;font-family:sans-serif"
       x="193.36993"
       y="978.9826"
       id="text3792"
       sodipodi:linespacing="125%"
       transform="scale(1.0225609,0.97793686)"><tspan
         sodipodi:role="line"
         id="tspan3794"
         x="193.36993"
         y="978.9826" /></text>
    <text
       xml:space="preserve"
       style="font-size:19.0949707px;font-style:normal;font-weight:normal;line-height:125%;letter-spacing:0px;word-spacing:0px;fill:#00002b;fill-opacity:0.23267326;stroke:none;display:inline;font-family:sans-serif"
       x="239.29877"
       y="848.04651"
       id="text3893"
       sodipodi:linespacing="125%"
       transform="scale(1.0225609,0.97793686)"><tspan
         sodipodi:role="line"
         id="tspan3895"
         x="239.29877"
         y="848.04651"
         style="font-size:11.93435669px;font-style:normal;font-variant:normal;font-weight:normal;font-stretch:normal;fill:#00002b;fill-opacity:0.23267326;font-family:Meera;-inkscape-font-specification:Meera">Enterprise Suite</tspan></text>
    <path
       sodipodi:type="arc"
       style="fill:#00002b;fill-opacity:0.18316836;stroke:#7fde31;stroke-width:0;stroke-linecap:round;stroke-linejoin:round;stroke-miterlimit:4;stroke-opacity:0;stroke-dasharray:none;display:inline"
       id="path5765"
       sodipodi:cx="267.94644"
       sodipodi:cy="242.54076"
       sodipodi:rx="8.3035717"
       sodipodi:ry="8.2142859"
       d="m 275.64586,245.6167 a 8.3035717,8.2142859 0 1 1 0.0276,-0.0685"
       transform="matrix(0.65207006,0,0,0.62361404,-120.14681,617.7594)"
       sodipodi:start="0.38381763"
       sodipodi:end="6.658026"
       sodipodi:open="true" />
  </g>
</svg>
