<?xml version="1.0" encoding="UTF-8" standalone="no"?>
<svg
   xmlns:osb="http://www.openswatchbook.org/uri/2009/osb"
   xmlns:dc="http://purl.org/dc/elements/1.1/"
   xmlns:cc="http://creativecommons.org/ns#"
   xmlns:rdf="http://www.w3.org/1999/02/22-rdf-syntax-ns#"
   xmlns:svg="http://www.w3.org/2000/svg"
   xmlns="http://www.w3.org/2000/svg"
   xmlns:sodipodi="http://sodipodi.sourceforge.net/DTD/sodipodi-0.dtd"
   xmlns:inkscape="http://www.inkscape.org/namespaces/inkscape"
   width="5.7in"
   height="5.68889in"
   viewBox="0 0 513 512"
   id="svg3286"
   version="1.1"
   inkscape:version="0.48.4 r9939"
   sodipodi:docname="selecion.svg">
  <metadata
     id="metadata3293">
    <rdf:RDF>
      <cc:Work
         rdf:about="">
        <dc:format>image/svg+xml</dc:format>
        <dc:type
           rdf:resource="http://purl.org/dc/dcmitype/StillImage" />
      </cc:Work>
    </rdf:RDF>
  </metadata>
  <defs
     id="defs3291">
    <linearGradient
       id="linearGradient6959"
       osb:paint="solid">
      <stop
         style="stop-color:#747fff;stop-opacity:1;"
         offset="0"
         id="stop6961" />
    </linearGradient>
    <marker
       inkscape:stockid="Arrow1Lstart"
       orient="auto"
       refY="0.0"
       refX="0.0"
       id="Arrow1Lstart"
       style="overflow:visible">
      <path
         id="path4157"
         d="M 0.0,0.0 L 5.0,-5.0 L -12.5,0.0 L 5.0,5.0 L 0.0,0.0 z "
         style="fill-rule:evenodd;stroke:#000000;stroke-width:1.0pt"
         transform="scale(0.8) translate(12.5,0)" />
    </marker>
    <filter
       id="filter3297"
       inkscape:label="Colorize"
       inkscape:menu="Color"
       inkscape:menu-tooltip="Blend image or object with a flood color and set lightness and contrast"
       x="0"
       y="0"
       width="1"
       height="1"
       color-interpolation-filters="sRGB">
      <feColorMatrix
         id="feColorMatrix3299"
         values="1"
         in="SourceGraphic"
         type="saturate"
         result="result2" />
      <feFlood
         id="feFlood3301"
         flood-color="rgb(254,102,0)"
         flood-opacity="1"
         result="result1" />
      <feBlend
         id="feBlend3303"
         in2="result2"
         mode="multiply"
         in="result1"
         result="result3" />
      <feComposite
         id="feComposite3305"
         in2="SourceGraphic"
         operator="in"
         k2="1"
         result="result4" />
    </filter>
  </defs>
  <sodipodi:namedview
     pagecolor="#ffffff"
     bordercolor="#666666"
     borderopacity="1"
     objecttolerance="10"
     gridtolerance="10"
     guidetolerance="10"
     inkscape:pageopacity="0"
     inkscape:pageshadow="2"
     inkscape:window-width="1366"
     inkscape:window-height="667"
     id="namedview3289"
     showgrid="false"
     inkscape:zoom="0.70710678"
     inkscape:cx="213.2142"
     inkscape:cy="302.40249"
     inkscape:window-x="0"
     inkscape:window-y="28"
     inkscape:window-maximized="1"
     inkscape:current-layer="svg3286"
     inkscape:snap-midpoints="true"
     inkscape:snap-smooth-nodes="true"
     inkscape:object-nodes="true"
     inkscape:object-paths="true"
     inkscape:snap-bbox="true"
     inkscape:snap-page="true" />
  <path
     id="Selection"
     d="m 432,-68 0,512 -513,0 0,-512 z M 301,2.8702698e-7 l -70,0 -228.9999997,0 L 2.0000003,371 257,371 l 60,0 c 16.9,0 18.37,1.32 18.03,-6 l 0,-6 0,-239 0,-76 C 335,32.56 334.16,11.28 336,1.0000003 z M 195,48 c -16.07,0 -32.95,-0.7 -48,5.87 -10.26,4.49 -17.78,13.55 -21.25,24.13 l -3.63,14.94 c -1.72,3.9 -6.11,4.86 -9.99,3.63 -1.17,-0.37 -2,-0.83 -2.52,-2 -0.6,-1.37 0.64,-13.51 1.05,-15.57 l 4.68,-35 c 0.57,-2.86 0.46,-9.68 1.83,-11.43 C 118.74,30.59 122.7,31 125,31 l 180,0 c 1.71,0 5.21,-0.13 6.69,0.6 5.42,2.66 -0.13,10.52 -2.22,13.4 L 287.57,76 273.57079,95.25888 266.49,105 l -7.5,11 c -2.71,3.49 -11.92,15 -11.99,19 -0.04,2.13 3.33,8.28 4.3,11 2.75,7.68 5.6,17.86 5.7,26 0.13,11.22 -2.12,23.75 -6.79,34 l -9.72,17 c -0.4,2.39 1.4,4.97 2.5,7 2.78,5.1 3.98,7.31 5.58,13 0.95,3.36 1.92,12.7 3.41,14.49 2.49,3.39 14.3,0.68 18.02,0 14.41,-3.38 25.14,-11.02 31.45,-24.49 l 6.48,-17 c 1.29,-3.62 1.73,-6.23 6.09,-6.85 8.67,-1.24 7.25,6.08 6.18,11.85 l -5.76,40 c -0.56,3.49 -0.94,11.93 -3.29,14.4 -1.87,1.96 -5.64,1.59 -8.15,1.6 l -53,0 c -0.38,8.08 -3.03,14.91 -6.78,22 -13.03,24.59 -37.55,39.35 -65.22,40.41 -3.52,0.13 -15.56,-1.36 -19,-2.27 -2.76,-0.73 -9.56,-3.26 -12,-2.59 -2.55,0.7 -11.19,9.38 -15,11.99 -9.94,6.78 -25.86,13.31 -38,13.46 -13.17,0.15 -21.49,-0.38 -34,-5.45 C 35.39,344.57 14.13,318.24 14,291 c -0.07,-14.19 -0.27,-20.31 5.06,-34 1.34,-3.45 8.47,-15.06 8.19,-17 L 16.47,225 C 10.44,214.87 5.1400003,199.85 5.0000003,188 4.5600003,150.64 31.3,116.74 69,111.72 c 3.65,-0.49 9.57,-1.66 13,-1.4 16.51,1.26 30.57,5.86 44,15.68 11.32,-15.82 34.76,-25.91 54,-26 9.81,-0.05 15.58,0.57 25,3.67 2.73,0.9 9.28,4.08 11.7,3.1 2.79,-1.14 11.26,-13.64 13.44,-16.77 L 260,48 z m -35,116.75 c -2.39,1.39 -8.82,6.64 -11.09,6.35 -2.99,-0.39 -6.21,-4.83 -12.91,-7.92 -13.05,-6.02 -25.53,-6.65 -39,-1.74 -23.84,8.69 -35.84,35.97 -27.29,59.56 1.92,5.31 4.48,9.57 7.96,14 1.52,1.95 5.42,6 6.09,8 0.93,2.8 -1.33,6.34 -2.34,9 -1.24,3.29 -2.46,9.44 -2.98,13 -0.6,4.18 -0.01,5.99 0.76,10 2.15,11.25 5,18.36 13.09,26.91 7.48,7.91 22.85,13.59 33.71,13.52 l 12,-1.93 17,-6.54 12,0 6,0 c 16.69,-0.17 36.91,-13.86 42,-29.96 l -104,0 c -8.12,-0.02 -13.21,-2.16 -7.52,-11 L 118,246 159.15,189 181,158 c -7.14,1.01 -14.74,3.1 -21,6.75 z M 184.57,219 156,260 l 62.91,0 0,-11 c -0.38,-2.45 -1.67,-5.73 -1.13,-8 0.87,-3.67 6.82,-8.26 10.54,-17 7.74,-18.15 3.21,-37.4 -9.32,-52 z"
     style="fill:none;stroke:#747fff;stroke-width:0.68385088;stroke-opacity:0.04608298;filter:url(#filter3297)"
     inkscape:connector-curvature="0"
     sodipodi:nodetypes="ccccccccccsccccccsccccccccsscccccccccccccccccccccccccccccccccccccccccccscccsccccccccccccccccccccccccccc"
     transform="matrix(1.5406471,0,0,1.3879509,-1.9702352,-0.90817489)" />
  <path
     style="fill:#9955ff;fill-opacity:1;stroke:#747fff;stroke-width:0;stroke-linecap:round;stroke-linejoin:round;stroke-miterlimit:4;stroke-opacity:0.04608298;stroke-dasharray:none;marker-start:none;marker-mid:none;marker-end:none"
     d="M 1.6095048,256.61936 1.7465851,0.7315978 256.05136,0.69002126 c 139.94302,-0.0229445 255.19391,0.52081644 256.11308,1.12917824 1.10841,0.7336472 1.38982,86.7888145 0.83558,255.5482105 l -0.83558,254.44207 -255.27746,0.38119 -255.277488,0.38121 z M 162.64012,496.65457 c 15.58655,-3.57837 35.60528,-13.00635 49.4474,-23.28757 9.84487,-7.31227 13.33073,-9.08877 16.71211,-8.51697 2.34994,0.39737 9.9129,1.86706 16.80669,3.26599 18.28293,3.71004 43.53849,2.59512 60.48648,-2.67027 36.72532,-11.4098 67.1547,-39.69699 76.04848,-70.69475 l 2.91581,-10.16262 44.75256,0 c 42.52425,0 44.91896,-0.14994 48.09496,-3.01115 1.83834,-1.65614 3.35018,-3.51929 3.35968,-4.14034 0.009,-0.62104 2.64146,-17.72812 5.84884,-38.01573 7.79877,-49.32948 7.69492,-51.18955 -2.85791,-51.18955 -6.57965,0 -10.19913,3.91338 -15.46865,16.7247 -7.62046,18.52687 -12.47964,26.58388 -20.26008,33.59318 -11.95507,10.77018 -34.69918,18.93855 -52.73274,18.93855 -7.41862,0 -7.97491,-0.28377 -9.59244,-4.89312 -0.94441,-2.69122 -2.22259,-7.60314 -2.84039,-10.91542 -0.61781,-3.31226 -4.11511,-11.8853 -7.77181,-19.05117 l -6.64853,-13.02888 6.87238,-10.60085 c 9.13821,-14.096 12.54125,-21.51162 15.80604,-34.44313 5.50297,-21.7967 2.69926,-44.60936 -8.65025,-70.3836 -2.45194,-5.56827 -2.8933,-8.44761 -1.72081,-11.22586 1.59557,-3.78077 11.40537,-16.5178 42.65507,-55.38325 29.83074,-37.100774 53.7319,-67.858161 56.55917,-72.783585 3.3843,-5.89586 2.03249,-11.627544 -3.00083,-12.723641 -2.05412,-0.447313 -69.88591,-0.627023 -150.73734,-0.399327 l -147.00259,0.413996 -2.01525,3.763931 c -1.76028,3.287667 -8.63248,47.165468 -11.7662,75.125076 -1.20111,10.71641 0.85307,13.70383 9.42305,13.70383 7.76521,0 11.16257,-3.66114 14.28877,-15.39808 8.23135,-30.903647 24.48179,-44.762021 58.73218,-50.086857 11.92926,-1.85462 27.66119,-2.224661 81.07836,-1.907126 l 66.27716,0.393987 -28.86935,36.629496 c -15.87813,20.1462 -30.46365,38.06575 -32.41223,39.82122 l -3.54286,3.19172 -13.82602,-4.26297 C 276.3819,130.4931 230.22457,138.95123 200.67082,164.3775 l -9.1634,7.88362 -7.62819,-4.09375 c -20.7188,-11.11899 -39.1219,-15.91846 -61.10693,-15.93651 -32.984226,-0.0271 -59.37033,9.58144 -81.811554,29.79174 -22.33713,20.11654 -33.6858091,42.29646 -35.5353466,69.45048 -1.6017502,23.51611 7.2625316,48.81861 24.3978696,69.64199 4.704088,5.71655 8.552872,11.26202 8.552872,12.32325 0,1.06125 -2.533735,6.05968 -5.630512,11.10764 -11.06345,18.03419 -13.606515,27.75024 -13.436133,51.33422 0.121801,16.85994 0.831343,22.93831 3.545561,30.37379 12.185984,33.3829 44.927497,61.34664 82.369513,70.34971 12.62518,3.03579 44.29187,3.06384 57.41555,0.0509 l 0,0 z"
     inkscape:connector-curvature="0"
     sodipodi:nodetypes="ccssscccccssssscsscsssssssscsssssssscsssssscsscsscssssssssssccc"
     id="path4099" />
  <path
     style="fill:#9955ff;fill-opacity:1;stroke:#747fff;stroke-width:1.084746;stroke-opacity:0.04608298"
     d="m 175.03553,433.52872 c -14.18235,-3.23344 -26.25645,-9.23749 -34.71552,-17.26295 -18.67695,-17.7195 -24.78896,-45.06764 -15.16842,-67.87104 1.90754,-4.52146 3.46864,-9.12491 3.4691,-10.22991 4.8e-4,-1.10501 -3.30653,-5.84757 -7.3489,-10.53904 -10.3976,-12.06716 -15.78806,-22.61557 -17.67183,-34.58152 -5.120662,-32.52682 17.49659,-63.20311 52.2534,-70.87258 20.1541,-4.44723 44.0249,-0.69617 60.85864,9.56328 4.78935,2.91894 10.00122,5.30714 11.58194,5.30714 1.58071,0 7.43875,-2.65333 13.01783,-5.89626 9.03393,-5.25113 24.50367,-10.66507 30.47429,-10.66507 2.37539,0 -13.61224,20.72076 -75.73992,98.16266 -22.38706,27.90537 -41.43053,52.45919 -42.31882,54.56401 -1.89433,4.48862 -0.87903,7.64689 3.01622,9.38255 1.53747,0.68508 40.54771,1.58435 86.68941,1.99839 l 83.89402,0.75279 -2.56771,4.77495 c -6.56342,12.20547 -22.98439,24.32008 -41.19561,30.39222 -7.68835,2.5635 -13.39541,3.22497 -27.82506,3.22497 -16.73347,0 -19.33254,0.41042 -33.23877,5.2487 -18.09961,6.29731 -33.36995,7.76008 -47.46429,4.54671 z"
     id="path4103"
     inkscape:connector-curvature="0" />
  <path
     style="fill:#9955ff;fill-opacity:1;stroke:#747fff;stroke-width:1.084746;stroke-opacity:0.04608298"
     d="m 251.76161,344.31427 c 26.80421,-34.72101 36.10969,-46.49443 58.91776,-74.54347 26.99565,-33.19888 25.36881,-32.3361 33.97074,-18.01627 7.24945,12.06833 10.13238,23.60282 9.09831,36.40216 -1.14583,14.18291 -4.08809,21.61538 -13.6275,34.4244 l -7.50678,10.07974 1.0314,13.1664 1.0314,13.16637 -47.12383,0 -47.1238,0 11.3323,-14.67933 z"
     id="path4105"
     inkscape:connector-curvature="0" />
  <rect
     style="fill:#eeaaff;fill-opacity:0;stroke:#747fff;stroke-width:0;stroke-linecap:round;stroke-linejoin:round;stroke-miterlimit:4;stroke-opacity:0.04608298;stroke-dasharray:none"
     id="rect6994"
     width="275.27499"
     height="193.28091"
     x="558.32104"
     y="179.25426" />
  <rect
     style="fill:#eeaaff;fill-opacity:0;stroke:#747fff;stroke-width:0;stroke-linecap:round;stroke-linejoin:round;stroke-miterlimit:4;stroke-opacity:0.04608298;stroke-dasharray:none"
     id="rect6996"
     width="510.57932"
     height="510.54071"
     x="1.5851355"
     y="1.2687639" />
  <rect
     style="fill:#eeaaff;fill-opacity:0;stroke:#747fff;stroke-width:0;stroke-linecap:round;stroke-linejoin:round;stroke-miterlimit:4;stroke-opacity:0.04608298;stroke-dasharray:none"
     id="rect7014"
     width="661.89716"
     height="552.03259"
     x="-55.634953"
     y="-30.712799" />
  <rect
     style="fill:#373e48;fill-opacity:0;stroke:#747fff;stroke-width:0;stroke-linecap:round;stroke-linejoin:round;stroke-miterlimit:4;stroke-opacity:0.04608298;stroke-dasharray:none"
     id="rect7016"
     width="511.05341"
     height="512.71765"
     x="1.1110617"
     y="-0.9081741" />
</svg>
